<?xml version="1.0" encoding="UTF-8" standalone="no"?>
<!DOCTYPE svg PUBLIC "-//W3C//DTD SVG 1.1//EN"
 "http://www.w3.org/Graphics/SVG/1.1/DTD/svg11.dtd">
<!-- Generated by graphviz version 2.36.0 (20140111.2315)
 -->
<!-- Title: G Pages: 1 -->
<svg width="887pt" height="1546pt"
 viewBox="0.00 0.00 887.00 1546.00" xmlns="http://www.w3.org/2000/svg" xmlns:xlink="http://www.w3.org/1999/xlink">
<g id="graph0" class="graph" transform="scale(1 1) rotate(0) translate(4 1542)">
<title>G</title>
<polygon fill="white" stroke="none" points="-4,4 -4,-1542 883,-1542 883,4 -4,4"/>
<!-- n1 -->
<g id="node1" class="node"><title>n1</title>
<g id="a_node1"><a xlink:title="[models.lua]:100_">
<ellipse fill="none" stroke="black" cx="451" cy="-117" rx="113.267" ry="26.7407"/>
<text text-anchor="middle" x="451" y="-120.8" font-family="Times,serif" font-size="14.00">Node1</text>
<text text-anchor="middle" x="451" y="-105.8" font-family="Times,serif" font-size="14.00">module = nn.LogSoftMax</text>
</a>
</g>
</g>
<!-- n2 -->
<g id="node2" class="node"><title>n2</title>
<g id="a_node2"><a xlink:title="[[C]]:&#45;1_">
<ellipse fill="none" stroke="black" cx="451" cy="-27" rx="51.99" ry="26.7407"/>
<text text-anchor="middle" x="451" y="-30.8" font-family="Times,serif" font-size="14.00">Node2</text>
<text text-anchor="middle" x="451" y="-15.8" font-family="Times,serif" font-size="14.00">input = {}</text>
</a>
</g>
</g>
<!-- n1&#45;&gt;n2 -->
<g id="edge1" class="edge"><title>n1&#45;&gt;n2</title>
<path fill="none" stroke="black" d="M451,-90.0731C451,-81.9993 451,-72.9428 451,-64.2961"/>
<polygon fill="black" stroke="black" points="454.5,-64.0457 451,-54.0457 447.5,-64.0458 454.5,-64.0457"/>
</g>
<!-- n3 -->
<g id="node3" class="node"><title>n3</title>
<g id="a_node3"><a xlink:title="[models.lua]:99_">
<ellipse fill="none" stroke="black" cx="451" cy="-207" rx="128.54" ry="26.7407"/>
<text text-anchor="middle" x="451" y="-210.8" font-family="Times,serif" font-size="14.00">Node3</text>
<text text-anchor="middle" x="451" y="-195.8" font-family="Times,serif" font-size="14.00">module = nn.Linear(128 &#45;&gt; 2)</text>
</a>
</g>
</g>
<!-- n3&#45;&gt;n1 -->
<g id="edge2" class="edge"><title>n3&#45;&gt;n1</title>
<path fill="none" stroke="black" d="M451,-180.073C451,-171.999 451,-162.943 451,-154.296"/>
<polygon fill="black" stroke="black" points="454.5,-154.046 451,-144.046 447.5,-154.046 454.5,-154.046"/>
</g>
<!-- n4 -->
<g id="node4" class="node"><title>n4</title>
<g id="a_node4"><a xlink:title="[models.lua]:98_">
<ellipse fill="none" stroke="black" cx="451" cy="-297" rx="87.5215" ry="26.7407"/>
<text text-anchor="middle" x="451" y="-300.8" font-family="Times,serif" font-size="14.00">Node4</text>
<text text-anchor="middle" x="451" y="-285.8" font-family="Times,serif" font-size="14.00">module = nn.ReLU</text>
</a>
</g>
</g>
<!-- n4&#45;&gt;n3 -->
<g id="edge3" class="edge"><title>n4&#45;&gt;n3</title>
<path fill="none" stroke="black" d="M451,-270.073C451,-261.999 451,-252.943 451,-244.296"/>
<polygon fill="black" stroke="black" points="454.5,-244.046 451,-234.046 447.5,-244.046 454.5,-244.046"/>
</g>
<!-- n5 -->
<g id="node5" class="node"><title>n5</title>
<g id="a_node5"><a xlink:title="[models.lua]:97_">
<ellipse fill="none" stroke="black" cx="451" cy="-387" rx="143.314" ry="26.7407"/>
<text text-anchor="middle" x="451" y="-390.8" font-family="Times,serif" font-size="14.00">Node5</text>
<text text-anchor="middle" x="451" y="-375.8" font-family="Times,serif" font-size="14.00">module = nn.Linear(3200 &#45;&gt; 128)</text>
</a>
</g>
</g>
<!-- n5&#45;&gt;n4 -->
<g id="edge4" class="edge"><title>n5&#45;&gt;n4</title>
<path fill="none" stroke="black" d="M451,-360.073C451,-351.999 451,-342.943 451,-334.296"/>
<polygon fill="black" stroke="black" points="454.5,-334.046 451,-324.046 447.5,-334.046 454.5,-334.046"/>
</g>
<!-- n6 -->
<g id="node6" class="node"><title>n6</title>
<g id="a_node6"><a xlink:title="[models.lua]:96_">
<ellipse fill="none" stroke="black" cx="451" cy="-477" rx="138.389" ry="26.7407"/>
<text text-anchor="middle" x="451" y="-480.8" font-family="Times,serif" font-size="14.00">Node6</text>
<text text-anchor="middle" x="451" y="-465.8" font-family="Times,serif" font-size="14.00">module = nn.Dropout(0.500000)</text>
</a>
</g>
</g>
<!-- n6&#45;&gt;n5 -->
<g id="edge5" class="edge"><title>n6&#45;&gt;n5</title>
<path fill="none" stroke="black" d="M451,-450.073C451,-441.999 451,-432.943 451,-424.296"/>
<polygon fill="black" stroke="black" points="454.5,-424.046 451,-414.046 447.5,-424.046 454.5,-424.046"/>
</g>
<!-- n7 -->
<g id="node7" class="node"><title>n7</title>
<g id="a_node7"><a xlink:title="[models.lua]:95_">
<ellipse fill="none" stroke="black" cx="451" cy="-567" rx="109.964" ry="26.7407"/>
<text text-anchor="middle" x="451" y="-570.8" font-family="Times,serif" font-size="14.00">Node7</text>
<text text-anchor="middle" x="451" y="-555.8" font-family="Times,serif" font-size="14.00">module = nn.View(3200)</text>
</a>
</g>
</g>
<!-- n7&#45;&gt;n6 -->
<g id="edge6" class="edge"><title>n7&#45;&gt;n6</title>
<path fill="none" stroke="black" d="M451,-540.073C451,-531.999 451,-522.943 451,-514.296"/>
<polygon fill="black" stroke="black" points="454.5,-514.046 451,-504.046 447.5,-514.046 454.5,-514.046"/>
</g>
<!-- n8 -->
<g id="node8" class="node"><title>n8</title>
<g id="a_node8"><a xlink:title="[models.lua]:92_">
<ellipse fill="none" stroke="black" cx="451" cy="-668" rx="128.54" ry="37.4533"/>
<text text-anchor="middle" x="451" y="-679.3" font-family="Times,serif" font-size="14.00">Node8</text>
<text text-anchor="start" x="368" y="-664.3" font-family="Times,serif" font-size="14.00">module = nn.JoinTable</text>
<text text-anchor="middle" x="451" y="-649.3" font-family="Times,serif" font-size="14.00">mapindex = {Node9,Node10}</text>
</a>
</g>
</g>
<!-- n8&#45;&gt;n7 -->
<g id="edge7" class="edge"><title>n8&#45;&gt;n7</title>
<path fill="none" stroke="black" d="M451,-630.417C451,-621.802 451,-612.626 451,-604.035"/>
<polygon fill="black" stroke="black" points="454.5,-603.924 451,-593.924 447.5,-603.924 454.5,-603.924"/>
</g>
<!-- n9 -->
<g id="node9" class="node"><title>n9</title>
<g id="a_node9"><a xlink:title="[models.lua]:79_">
<ellipse fill="none" stroke="black" cx="263" cy="-769" rx="176.166" ry="26.7407"/>
<text text-anchor="middle" x="263" y="-772.8" font-family="Times,serif" font-size="14.00">Node9</text>
<text text-anchor="middle" x="263" y="-757.8" font-family="Times,serif" font-size="14.00">module = nn.SpatialMaxPooling(2x2, 2,2)</text>
</a>
</g>
</g>
<!-- n9&#45;&gt;n8 -->
<g id="edge8" class="edge"><title>n9&#45;&gt;n8</title>
<path fill="none" stroke="black" d="M310.44,-743.018C331.853,-731.742 357.578,-718.195 381.134,-705.791"/>
<polygon fill="black" stroke="black" points="382.826,-708.856 390.043,-701.1 379.564,-702.662 382.826,-708.856"/>
</g>
<!-- n10 -->
<g id="node10" class="node"><title>n10</title>
<g id="a_node10"><a xlink:title="[models.lua]:90_">
<ellipse fill="none" stroke="black" cx="640" cy="-769" rx="176.166" ry="26.7407"/>
<text text-anchor="middle" x="640" y="-772.8" font-family="Times,serif" font-size="14.00">Node10</text>
<text text-anchor="middle" x="640" y="-757.8" font-family="Times,serif" font-size="14.00">module = nn.SpatialMaxPooling(2x2, 2,2)</text>
</a>
</g>
</g>
<!-- n10&#45;&gt;n8 -->
<g id="edge9" class="edge"><title>n10&#45;&gt;n8</title>
<path fill="none" stroke="black" d="M592.307,-743.018C570.781,-731.742 544.919,-718.195 521.237,-705.791"/>
<polygon fill="black" stroke="black" points="522.764,-702.639 512.281,-701.1 519.516,-708.84 522.764,-702.639"/>
</g>
<!-- n11 -->
<g id="node11" class="node"><title>n11</title>
<g id="a_node11"><a xlink:title="[models.lua]:78_">
<ellipse fill="none" stroke="black" cx="253" cy="-859" rx="87.5215" ry="26.7407"/>
<text text-anchor="middle" x="253" y="-862.8" font-family="Times,serif" font-size="14.00">Node11</text>
<text text-anchor="middle" x="253" y="-847.8" font-family="Times,serif" font-size="14.00">module = nn.ReLU</text>
</a>
</g>
</g>
<!-- n11&#45;&gt;n9 -->
<g id="edge10" class="edge"><title>n11&#45;&gt;n9</title>
<path fill="none" stroke="black" d="M255.946,-832.073C256.874,-823.911 257.915,-814.744 258.908,-806.011"/>
<polygon fill="black" stroke="black" points="262.389,-806.377 260.04,-796.046 255.433,-805.587 262.389,-806.377"/>
</g>
<!-- n12 -->
<g id="node12" class="node"><title>n12</title>
<g id="a_node12"><a xlink:title="[models.lua]:89_">
<ellipse fill="none" stroke="black" cx="659" cy="-859" rx="87.5215" ry="26.7407"/>
<text text-anchor="middle" x="659" y="-862.8" font-family="Times,serif" font-size="14.00">Node12</text>
<text text-anchor="middle" x="659" y="-847.8" font-family="Times,serif" font-size="14.00">module = nn.ReLU</text>
</a>
</g>
</g>
<!-- n12&#45;&gt;n10 -->
<g id="edge11" class="edge"><title>n12&#45;&gt;n10</title>
<path fill="none" stroke="black" d="M653.402,-832.073C651.64,-823.911 649.661,-814.744 647.775,-806.011"/>
<polygon fill="black" stroke="black" points="651.155,-805.082 645.624,-796.046 644.313,-806.559 651.155,-805.082"/>
</g>
<!-- n13 -->
<g id="node13" class="node"><title>n13</title>
<g id="a_node13"><a xlink:title="[models.lua]:77_">
<ellipse fill="none" stroke="black" cx="215" cy="-949" rx="215.501" ry="26.7407"/>
<text text-anchor="middle" x="215" y="-952.8" font-family="Times,serif" font-size="14.00">Node13</text>
<text text-anchor="middle" x="215" y="-937.8" font-family="Times,serif" font-size="14.00">module = nn.SpatialConvolutionMM(64 &#45;&gt; 64, 5x5)</text>
</a>
</g>
</g>
<!-- n13&#45;&gt;n11 -->
<g id="edge12" class="edge"><title>n13&#45;&gt;n11</title>
<path fill="none" stroke="black" d="M226.196,-922.073C229.829,-913.659 233.924,-904.177 237.798,-895.204"/>
<polygon fill="black" stroke="black" points="241.133,-896.31 241.884,-885.742 234.707,-893.535 241.133,-896.31"/>
</g>
<!-- n14 -->
<g id="node14" class="node"><title>n14</title>
<g id="a_node14"><a xlink:title="[models.lua]:88_">
<ellipse fill="none" stroke="black" cx="664" cy="-949" rx="215.501" ry="26.7407"/>
<text text-anchor="middle" x="664" y="-952.8" font-family="Times,serif" font-size="14.00">Node14</text>
<text text-anchor="middle" x="664" y="-937.8" font-family="Times,serif" font-size="14.00">module = nn.SpatialConvolutionMM(64 &#45;&gt; 64, 5x5)</text>
</a>
</g>
</g>
<!-- n14&#45;&gt;n12 -->
<g id="edge13" class="edge"><title>n14&#45;&gt;n12</title>
<path fill="none" stroke="black" d="M662.527,-922.073C662.068,-913.999 661.554,-904.943 661.062,-896.296"/>
<polygon fill="black" stroke="black" points="664.542,-895.831 660.48,-886.046 657.553,-896.228 664.542,-895.831"/>
</g>
<!-- n15 -->
<g id="node15" class="node"><title>n15</title>
<g id="a_node15"><a xlink:title="[models.lua]:74_">
<ellipse fill="none" stroke="black" cx="215" cy="-1039" rx="176.166" ry="26.7407"/>
<text text-anchor="middle" x="215" y="-1042.8" font-family="Times,serif" font-size="14.00">Node15</text>
<text text-anchor="middle" x="215" y="-1027.8" font-family="Times,serif" font-size="14.00">module = nn.SpatialMaxPooling(2x2, 2,2)</text>
</a>
</g>
</g>
<!-- n15&#45;&gt;n13 -->
<g id="edge14" class="edge"><title>n15&#45;&gt;n13</title>
<path fill="none" stroke="black" d="M215,-1012.07C215,-1004 215,-994.943 215,-986.296"/>
<polygon fill="black" stroke="black" points="218.5,-986.046 215,-976.046 211.5,-986.046 218.5,-986.046"/>
</g>
<!-- n16 -->
<g id="node16" class="node"><title>n16</title>
<g id="a_node16"><a xlink:title="[models.lua]:85_">
<ellipse fill="none" stroke="black" cx="663" cy="-1039" rx="176.166" ry="26.7407"/>
<text text-anchor="middle" x="663" y="-1042.8" font-family="Times,serif" font-size="14.00">Node16</text>
<text text-anchor="middle" x="663" y="-1027.8" font-family="Times,serif" font-size="14.00">module = nn.SpatialMaxPooling(2x2, 2,2)</text>
</a>
</g>
</g>
<!-- n16&#45;&gt;n14 -->
<g id="edge15" class="edge"><title>n16&#45;&gt;n14</title>
<path fill="none" stroke="black" d="M663.295,-1012.07C663.386,-1004 663.489,-994.943 663.588,-986.296"/>
<polygon fill="black" stroke="black" points="667.09,-986.085 663.704,-976.046 660.091,-986.005 667.09,-986.085"/>
</g>
<!-- n17 -->
<g id="node17" class="node"><title>n17</title>
<g id="a_node17"><a xlink:title="[models.lua]:73_">
<ellipse fill="none" stroke="black" cx="215" cy="-1129" rx="87.5215" ry="26.7407"/>
<text text-anchor="middle" x="215" y="-1132.8" font-family="Times,serif" font-size="14.00">Node17</text>
<text text-anchor="middle" x="215" y="-1117.8" font-family="Times,serif" font-size="14.00">module = nn.ReLU</text>
</a>
</g>
</g>
<!-- n17&#45;&gt;n15 -->
<g id="edge16" class="edge"><title>n17&#45;&gt;n15</title>
<path fill="none" stroke="black" d="M215,-1102.07C215,-1094 215,-1084.94 215,-1076.3"/>
<polygon fill="black" stroke="black" points="218.5,-1076.05 215,-1066.05 211.5,-1076.05 218.5,-1076.05"/>
</g>
<!-- n18 -->
<g id="node18" class="node"><title>n18</title>
<g id="a_node18"><a xlink:title="[models.lua]:84_">
<ellipse fill="none" stroke="black" cx="662" cy="-1129" rx="87.5215" ry="26.7407"/>
<text text-anchor="middle" x="662" y="-1132.8" font-family="Times,serif" font-size="14.00">Node18</text>
<text text-anchor="middle" x="662" y="-1117.8" font-family="Times,serif" font-size="14.00">module = nn.ReLU</text>
</a>
</g>
</g>
<!-- n18&#45;&gt;n16 -->
<g id="edge17" class="edge"><title>n18&#45;&gt;n16</title>
<path fill="none" stroke="black" d="M662.295,-1102.07C662.386,-1094 662.489,-1084.94 662.588,-1076.3"/>
<polygon fill="black" stroke="black" points="666.09,-1076.08 662.704,-1066.05 659.091,-1076.01 666.09,-1076.08"/>
</g>
<!-- n19 -->
<g id="node19" class="node"><title>n19</title>
<g id="a_node19"><a xlink:title="[models.lua]:72_">
<ellipse fill="none" stroke="black" cx="217" cy="-1219" rx="211.137" ry="26.7407"/>
<text text-anchor="middle" x="217" y="-1222.8" font-family="Times,serif" font-size="14.00">Node19</text>
<text text-anchor="middle" x="217" y="-1207.8" font-family="Times,serif" font-size="14.00">module = nn.SpatialConvolutionMM(3 &#45;&gt; 64, 5x5)</text>
</a>
</g>
</g>
<!-- n19&#45;&gt;n17 -->
<g id="edge18" class="edge"><title>n19&#45;&gt;n17</title>
<path fill="none" stroke="black" d="M216.411,-1192.07C216.227,-1184 216.021,-1174.94 215.825,-1166.3"/>
<polygon fill="black" stroke="black" points="219.318,-1165.96 215.592,-1156.05 212.32,-1166.12 219.318,-1165.96"/>
</g>
<!-- n20 -->
<g id="node20" class="node"><title>n20</title>
<g id="a_node20"><a xlink:title="[models.lua]:83_">
<ellipse fill="none" stroke="black" cx="662" cy="-1219" rx="211.137" ry="26.7407"/>
<text text-anchor="middle" x="662" y="-1222.8" font-family="Times,serif" font-size="14.00">Node20</text>
<text text-anchor="middle" x="662" y="-1207.8" font-family="Times,serif" font-size="14.00">module = nn.SpatialConvolutionMM(3 &#45;&gt; 64, 5x5)</text>
</a>
</g>
</g>
<!-- n20&#45;&gt;n18 -->
<g id="edge19" class="edge"><title>n20&#45;&gt;n18</title>
<path fill="none" stroke="black" d="M662,-1192.07C662,-1184 662,-1174.94 662,-1166.3"/>
<polygon fill="black" stroke="black" points="665.5,-1166.05 662,-1156.05 658.5,-1166.05 665.5,-1166.05"/>
</g>
<!-- n21 -->
<g id="node21" class="node"><title>n21</title>
<g id="a_node21"><a xlink:title="[[C]]:&#45;1_&#45;1">
<ellipse fill="none" stroke="black" cx="287" cy="-1320" rx="70.5656" ry="37.4533"/>
<text text-anchor="middle" x="287" y="-1331.3" font-family="Times,serif" font-size="14.00">Node21</text>
<text text-anchor="start" x="245" y="-1316.3" font-family="Times,serif" font-size="14.00">input = {}</text>
<text text-anchor="middle" x="287" y="-1301.3" font-family="Times,serif" font-size="14.00">selectindex = 1</text>
</a>
</g>
</g>
<!-- n21&#45;&gt;n19 -->
<g id="edge20" class="edge"><title>n21&#45;&gt;n19</title>
<path fill="none" stroke="black" d="M262.714,-1284.65C255.75,-1274.8 248.161,-1264.07 241.203,-1254.23"/>
<polygon fill="black" stroke="black" points="243.913,-1252 235.282,-1245.86 238.197,-1256.04 243.913,-1252"/>
</g>
<!-- n22 -->
<g id="node22" class="node"><title>n22</title>
<g id="a_node22"><a xlink:title="[[C]]:&#45;1_&#45;2">
<ellipse fill="none" stroke="black" cx="587" cy="-1320" rx="70.5656" ry="37.4533"/>
<text text-anchor="middle" x="587" y="-1331.3" font-family="Times,serif" font-size="14.00">Node22</text>
<text text-anchor="start" x="545" y="-1316.3" font-family="Times,serif" font-size="14.00">input = {}</text>
<text text-anchor="middle" x="587" y="-1301.3" font-family="Times,serif" font-size="14.00">selectindex = 2</text>
</a>
</g>
</g>
<!-- n22&#45;&gt;n20 -->
<g id="edge21" class="edge"><title>n22&#45;&gt;n20</title>
<path fill="none" stroke="black" d="M612.811,-1284.93C620.358,-1274.97 628.608,-1264.08 636.158,-1254.11"/>
<polygon fill="black" stroke="black" points="639.055,-1256.08 642.304,-1246 633.475,-1251.86 639.055,-1256.08"/>
</g>
<!-- n23 -->
<g id="node23" class="node"><title>n23</title>
<g id="a_node23"><a xlink:title="[[C]]:&#45;1_ split at [/home/arul/torch/install/share/lua/5.1/nngraph/gmodule.lua]:72&#45;mnode">
<ellipse fill="none" stroke="black" cx="366" cy="-1421" rx="80.415" ry="26.7407"/>
<text text-anchor="middle" x="366" y="-1424.8" font-family="Times,serif" font-size="14.00">Node23</text>
<text text-anchor="middle" x="366" y="-1409.8" font-family="Times,serif" font-size="14.00">nSplitOutputs = 2</text>
</a>
</g>
</g>
<!-- n23&#45;&gt;n21 -->
<g id="edge22" class="edge"><title>n23&#45;&gt;n21</title>
<path fill="none" stroke="black" d="M345.861,-1394.76C338.062,-1384.99 328.926,-1373.54 320.209,-1362.62"/>
<polygon fill="black" stroke="black" points="322.934,-1360.42 313.961,-1354.79 317.463,-1364.79 322.934,-1360.42"/>
</g>
<!-- n23&#45;&gt;n22 -->
<g id="edge23" class="edge"><title>n23&#45;&gt;n22</title>
<path fill="none" stroke="black" d="M412.868,-1399C445.435,-1384.42 489.188,-1364.82 524.689,-1348.91"/>
<polygon fill="black" stroke="black" points="526.299,-1352.03 533.995,-1344.74 523.438,-1345.64 526.299,-1352.03"/>
</g>
<!-- n24 -->
<g id="node24" class="node"><title>n24</title>
<g id="a_node24"><a xlink:title="[[C]]:&#45;1_">
<ellipse fill="none" stroke="black" cx="366" cy="-1511" rx="51.99" ry="26.7407"/>
<text text-anchor="middle" x="366" y="-1514.8" font-family="Times,serif" font-size="14.00">Node24</text>
<text text-anchor="middle" x="366" y="-1499.8" font-family="Times,serif" font-size="14.00">input = {}</text>
</a>
</g>
</g>
<!-- n24&#45;&gt;n23 -->
<g id="edge24" class="edge"><title>n24&#45;&gt;n23</title>
<path fill="none" stroke="black" d="M366,-1484.07C366,-1476 366,-1466.94 366,-1458.3"/>
<polygon fill="black" stroke="black" points="369.5,-1458.05 366,-1448.05 362.5,-1458.05 369.5,-1458.05"/>
</g>
</g>
</svg>
